<?xml version="1.0" encoding="UTF-8" standalone="no"?>
<!DOCTYPE svg PUBLIC "-//W3C//DTD SVG 1.1//EN"
 "http://www.w3.org/Graphics/SVG/1.1/DTD/svg11.dtd">
<!-- Generated by graphviz version 9.0.0 (20230911.1827)
 -->
<!-- Title: G Pages: 1 -->
<svg width="332pt" height="109pt"
 viewBox="0.00 0.00 332.00 109.00" xmlns="http://www.w3.org/2000/svg" xmlns:xlink="http://www.w3.org/1999/xlink">
<g id="graph0" class="graph" transform="scale(1 1) rotate(0) translate(4 105)">
<title>G</title>
<polygon fill="white" stroke="none" points="-4,4 -4,-105 328,-105 328,4 -4,4"/>
<!-- 1 -->
<g id="node1" class="node">
<title>1</title>
<ellipse fill="none" stroke="black" cx="18" cy="-83" rx="18" ry="18"/>
<text text-anchor="middle" x="18" y="-77.2" font-family="Helvetica,Arial,sans-serif" font-size="14.00">1</text>
</g>
<!-- 2 -->
<g id="node2" class="node">
<title>2</title>
<ellipse fill="none" stroke="black" cx="234" cy="-72" rx="18" ry="18"/>
<text text-anchor="middle" x="234" y="-66.2" font-family="Helvetica,Arial,sans-serif" font-size="14.00">2</text>
</g>
<!-- 1&#45;&gt;2 -->
<g id="edge1" class="edge">
<title>1&#45;&gt;2</title>
<path fill="none" stroke="black" d="M36.17,-84.62C46.53,-85.52 60.01,-86.55 72,-87 120.07,-88.81 132.26,-85.92 180,-80 187.97,-79.01 196.59,-77.78 204.52,-76.58"/>
<polygon fill="black" stroke="black" points="205.01,-80.05 214.35,-75.06 203.93,-73.13 205.01,-80.05"/>
</g>
<!-- 4 -->
<g id="node3" class="node">
<title>4</title>
<ellipse fill="none" stroke="black" cx="90" cy="-60" rx="18" ry="18"/>
<text text-anchor="middle" x="90" y="-54.2" font-family="Helvetica,Arial,sans-serif" font-size="14.00">4</text>
</g>
<!-- 1&#45;&gt;4 -->
<g id="edge2" class="edge">
<title>1&#45;&gt;4</title>
<path fill="none" stroke="black" d="M35.59,-77.55C43.43,-74.97 53.01,-71.83 61.87,-68.91"/>
<polygon fill="black" stroke="black" points="62.68,-72.33 71.09,-65.88 60.5,-65.68 62.68,-72.33"/>
</g>
<!-- 6 -->
<g id="node6" class="node">
<title>6</title>
<ellipse fill="none" stroke="black" cx="306" cy="-45" rx="18" ry="18"/>
<text text-anchor="middle" x="306" y="-39.2" font-family="Helvetica,Arial,sans-serif" font-size="14.00">6</text>
</g>
<!-- 2&#45;&gt;6 -->
<g id="edge8" class="edge">
<title>2&#45;&gt;6</title>
<path fill="none" stroke="black" d="M251.24,-65.74C259.28,-62.64 269.19,-58.81 278.31,-55.3"/>
<polygon fill="black" stroke="black" points="279.37,-58.64 287.44,-51.77 276.85,-52.11 279.37,-58.64"/>
</g>
<!-- 4&#45;&gt;2 -->
<g id="edge4" class="edge">
<title>4&#45;&gt;2</title>
<path fill="none" stroke="black" d="M108.41,-61.47C132.39,-63.5 175.86,-67.17 204.58,-69.6"/>
<polygon fill="black" stroke="black" points="204.12,-73.07 214.38,-70.43 204.71,-66.1 204.12,-73.07"/>
</g>
<!-- 3 -->
<g id="node4" class="node">
<title>3</title>
<ellipse fill="none" stroke="black" cx="162" cy="-22" rx="18" ry="18"/>
<text text-anchor="middle" x="162" y="-16.2" font-family="Helvetica,Arial,sans-serif" font-size="14.00">3</text>
</g>
<!-- 4&#45;&gt;3 -->
<g id="edge5" class="edge">
<title>4&#45;&gt;3</title>
<path fill="none" stroke="black" d="M106.19,-51.75C114.9,-47.02 126.06,-40.97 136.03,-35.55"/>
<polygon fill="black" stroke="black" points="137.39,-38.8 144.51,-30.95 134.05,-32.65 137.39,-38.8"/>
</g>
<!-- 3&#45;&gt;2 -->
<g id="edge3" class="edge">
<title>3&#45;&gt;2</title>
<path fill="none" stroke="black" d="M177.17,-32.12C186.46,-38.76 198.85,-47.6 209.59,-55.28"/>
<polygon fill="black" stroke="black" points="207.45,-58.05 217.62,-61.02 211.52,-52.36 207.45,-58.05"/>
</g>
<!-- 5 -->
<g id="node5" class="node">
<title>5</title>
<ellipse fill="none" stroke="black" cx="234" cy="-18" rx="18" ry="18"/>
<text text-anchor="middle" x="234" y="-12.2" font-family="Helvetica,Arial,sans-serif" font-size="14.00">5</text>
</g>
<!-- 3&#45;&gt;5 -->
<g id="edge7" class="edge">
<title>3&#45;&gt;5</title>
<path fill="none" stroke="black" d="M180.3,-21.01C187.59,-20.59 196.27,-20.1 204.46,-19.63"/>
<polygon fill="black" stroke="black" points="204.6,-23.13 214.38,-19.06 204.2,-16.14 204.6,-23.13"/>
</g>
<!-- 5&#45;&gt;6 -->
<g id="edge6" class="edge">
<title>5&#45;&gt;6</title>
<path fill="none" stroke="black" d="M251.24,-24.26C259.28,-27.36 269.19,-31.19 278.31,-34.7"/>
<polygon fill="black" stroke="black" points="276.85,-37.89 287.44,-38.23 279.37,-31.36 276.85,-37.89"/>
</g>
</g>
</svg>
