<?xml version="1.0" encoding="UTF-8" standalone="no"?>
<!DOCTYPE svg PUBLIC "-//W3C//DTD SVG 1.1//EN"
 "http://www.w3.org/Graphics/SVG/1.1/DTD/svg11.dtd">
<!-- Generated by graphviz version 9.0.0 (20230911.1827)
 -->
<!-- Title: G Pages: 1 -->
<svg width="566pt" height="264pt"
 viewBox="0.00 0.00 566.00 264.00" xmlns="http://www.w3.org/2000/svg" xmlns:xlink="http://www.w3.org/1999/xlink">
<g id="graph0" class="graph" transform="scale(1 1) rotate(0) translate(4 260)">
<title>G</title>
<polygon fill="white" stroke="none" points="-4,4 -4,-260 562,-260 562,4 -4,4"/>
<!-- s00 -->
<g id="node1" class="node">
<title>s00</title>
<polygon fill="none" stroke="black" points="138.75,-219.5 138.75,-255.5 361.25,-255.5 361.25,-219.5 138.75,-219.5"/>
<text text-anchor="middle" x="153.5" y="-232.45" font-family="Times,serif" font-size="14.00">18</text>
<polyline fill="none" stroke="black" points="168.25,-219.5 168.25,-255.5"/>
<text text-anchor="middle" x="183" y="-232.45" font-family="Times,serif" font-size="14.00">43</text>
<polyline fill="none" stroke="black" points="197.75,-219.5 197.75,-255.5"/>
<text text-anchor="middle" x="209.12" y="-232.45" font-family="Times,serif" font-size="14.00">6</text>
<polyline fill="none" stroke="black" points="220.5,-219.5 220.5,-255.5"/>
<text text-anchor="middle" x="235.25" y="-232.45" font-family="Times,serif" font-size="14.00">15</text>
<polyline fill="none" stroke="black" points="250,-219.5 250,-255.5"/>
<text text-anchor="middle" x="261.38" y="-232.45" font-family="Times,serif" font-size="14.00">9</text>
<polyline fill="none" stroke="black" points="272.75,-219.5 272.75,-255.5"/>
<text text-anchor="middle" x="287.5" y="-232.45" font-family="Times,serif" font-size="14.00">37</text>
<polyline fill="none" stroke="black" points="302.25,-219.5 302.25,-255.5"/>
<text text-anchor="middle" x="317" y="-232.45" font-family="Times,serif" font-size="14.00">10</text>
<polyline fill="none" stroke="black" points="331.75,-219.5 331.75,-255.5"/>
<text text-anchor="middle" x="346.5" y="-232.45" font-family="Times,serif" font-size="14.00">42</text>
</g>
<!-- s10 -->
<g id="node2" class="node">
<title>s10</title>
<polygon fill="none" stroke="black" points="124.38,-146.5 124.38,-182.5 235.62,-182.5 235.62,-146.5 124.38,-146.5"/>
<text text-anchor="middle" x="139.12" y="-159.45" font-family="Times,serif" font-size="14.00">18</text>
<polyline fill="none" stroke="black" points="153.88,-146.5 153.88,-182.5"/>
<text text-anchor="middle" x="168.62" y="-159.45" font-family="Times,serif" font-size="14.00">43</text>
<polyline fill="none" stroke="black" points="183.38,-146.5 183.38,-182.5"/>
<text text-anchor="middle" x="194.75" y="-159.45" font-family="Times,serif" font-size="14.00">6</text>
<polyline fill="none" stroke="black" points="206.12,-146.5 206.12,-182.5"/>
<text text-anchor="middle" x="220.88" y="-159.45" font-family="Times,serif" font-size="14.00">15</text>
</g>
<!-- s00&#45;&gt;s10 -->
<g id="edge1" class="edge">
<title>s00&#45;&gt;s10</title>
<path fill="none" stroke="black" d="M233.05,-219.31C224.54,-210.68 214.07,-200.06 204.68,-190.53"/>
<polygon fill="black" stroke="black" points="207.36,-188.27 197.85,-183.61 202.38,-193.18 207.36,-188.27"/>
</g>
<!-- s11 -->
<g id="node3" class="node">
<title>s11</title>
<polygon fill="none" stroke="black" points="293.38,-146.5 293.38,-182.5 404.62,-182.5 404.62,-146.5 293.38,-146.5"/>
<text text-anchor="middle" x="304.75" y="-159.45" font-family="Times,serif" font-size="14.00">9</text>
<polyline fill="none" stroke="black" points="316.12,-146.5 316.12,-182.5"/>
<text text-anchor="middle" x="330.88" y="-159.45" font-family="Times,serif" font-size="14.00">37</text>
<polyline fill="none" stroke="black" points="345.62,-146.5 345.62,-182.5"/>
<text text-anchor="middle" x="360.38" y="-159.45" font-family="Times,serif" font-size="14.00">10</text>
<polyline fill="none" stroke="black" points="375.12,-146.5 375.12,-182.5"/>
<text text-anchor="middle" x="389.88" y="-159.45" font-family="Times,serif" font-size="14.00">42</text>
</g>
<!-- s00&#45;&gt;s11 -->
<g id="edge2" class="edge">
<title>s00&#45;&gt;s11</title>
<path fill="none" stroke="black" d="M274.22,-219.13C286.68,-210.19 302.07,-199.16 315.64,-189.42"/>
<polygon fill="black" stroke="black" points="317.37,-192.49 323.46,-183.82 313.29,-186.8 317.37,-192.49"/>
</g>
<!-- s20 -->
<g id="node4" class="node">
<title>s20</title>
<polygon fill="none" stroke="black" points="69.5,-73.5 69.5,-109.5 128.5,-109.5 128.5,-73.5 69.5,-73.5"/>
<text text-anchor="middle" x="84.25" y="-86.45" font-family="Times,serif" font-size="14.00">18</text>
<polyline fill="none" stroke="black" points="99,-73.5 99,-109.5"/>
<text text-anchor="middle" x="113.75" y="-86.45" font-family="Times,serif" font-size="14.00">43</text>
</g>
<!-- s10&#45;&gt;s20 -->
<g id="edge3" class="edge">
<title>s10&#45;&gt;s20</title>
<path fill="none" stroke="black" d="M160.39,-146.31C150.42,-137.57 138.11,-126.78 127.15,-117.17"/>
<polygon fill="black" stroke="black" points="129.67,-114.73 119.85,-110.77 125.06,-120 129.67,-114.73"/>
</g>
<!-- s21 -->
<g id="node5" class="node">
<title>s21</title>
<polygon fill="none" stroke="black" points="153,-73.5 153,-109.5 207,-109.5 207,-73.5 153,-73.5"/>
<text text-anchor="middle" x="164.38" y="-86.45" font-family="Times,serif" font-size="14.00">6</text>
<polyline fill="none" stroke="black" points="175.75,-73.5 175.75,-109.5"/>
<text text-anchor="middle" x="191" y="-86.45" font-family="Times,serif" font-size="14.00">15</text>
</g>
<!-- s10&#45;&gt;s21 -->
<g id="edge4" class="edge">
<title>s10&#45;&gt;s21</title>
<path fill="none" stroke="black" d="M180,-146.31C180,-138.73 180,-129.6 180,-121.04"/>
<polygon fill="black" stroke="black" points="183.5,-121.04 180,-111.04 176.5,-121.04 183.5,-121.04"/>
</g>
<!-- s22 -->
<g id="node6" class="node">
<title>s22</title>
<polygon fill="none" stroke="black" points="322,-73.5 322,-109.5 376,-109.5 376,-73.5 322,-73.5"/>
<text text-anchor="middle" x="333.38" y="-86.45" font-family="Times,serif" font-size="14.00">9</text>
<polyline fill="none" stroke="black" points="344.75,-73.5 344.75,-109.5"/>
<text text-anchor="middle" x="360" y="-86.45" font-family="Times,serif" font-size="14.00">37</text>
</g>
<!-- s11&#45;&gt;s22 -->
<g id="edge5" class="edge">
<title>s11&#45;&gt;s22</title>
<path fill="none" stroke="black" d="M349,-146.31C349,-138.73 349,-129.6 349,-121.04"/>
<polygon fill="black" stroke="black" points="352.5,-121.04 349,-111.04 345.5,-121.04 352.5,-121.04"/>
</g>
<!-- s23 -->
<g id="node13" class="node">
<title>s23</title>
<polygon fill="none" stroke="black" points="429.5,-73.5 429.5,-109.5 488.5,-109.5 488.5,-73.5 429.5,-73.5"/>
<text text-anchor="middle" x="444.25" y="-86.45" font-family="Times,serif" font-size="14.00">10</text>
<polyline fill="none" stroke="black" points="459,-73.5 459,-109.5"/>
<text text-anchor="middle" x="473.75" y="-86.45" font-family="Times,serif" font-size="14.00">42</text>
</g>
<!-- s11&#45;&gt;s23 -->
<g id="edge12" class="edge">
<title>s11&#45;&gt;s23</title>
<path fill="none" stroke="black" d="M375.91,-146.13C389.89,-137.11 407.19,-125.94 422.37,-116.14"/>
<polygon fill="black" stroke="black" points="424.21,-119.12 430.72,-110.76 420.42,-113.24 424.21,-119.12"/>
</g>
<!-- s30 -->
<g id="node7" class="node">
<title>s30</title>
<polygon fill="none" stroke="black" points="0,-0.5 0,-36.5 54,-36.5 54,-0.5 0,-0.5"/>
<text text-anchor="middle" x="26.75" y="-13.45" font-family="Times,serif" font-size="14.00">18</text>
</g>
<!-- s20&#45;&gt;s30 -->
<g id="edge6" class="edge">
<title>s20&#45;&gt;s30</title>
<path fill="none" stroke="black" d="M81.57,-73.31C72.88,-64.74 62.2,-54.21 52.6,-44.74"/>
<polygon fill="black" stroke="black" points="55.17,-42.37 45.6,-37.84 50.26,-47.35 55.17,-42.37"/>
</g>
<!-- s31 -->
<g id="node8" class="node">
<title>s31</title>
<polygon fill="none" stroke="black" points="72,-0.5 72,-36.5 126,-36.5 126,-0.5 72,-0.5"/>
<text text-anchor="middle" x="98.75" y="-13.45" font-family="Times,serif" font-size="14.00">43</text>
</g>
<!-- s20&#45;&gt;s31 -->
<g id="edge7" class="edge">
<title>s20&#45;&gt;s31</title>
<path fill="none" stroke="black" d="M99,-73.31C99,-65.73 99,-56.6 99,-48.04"/>
<polygon fill="black" stroke="black" points="102.5,-48.04 99,-38.04 95.5,-48.04 102.5,-48.04"/>
</g>
<!-- s32 -->
<g id="node9" class="node">
<title>s32</title>
<polygon fill="none" stroke="black" points="144,-0.5 144,-36.5 198,-36.5 198,-0.5 144,-0.5"/>
<text text-anchor="middle" x="170.88" y="-13.45" font-family="Times,serif" font-size="14.00">6</text>
</g>
<!-- s21&#45;&gt;s32 -->
<g id="edge8" class="edge">
<title>s21&#45;&gt;s32</title>
<path fill="none" stroke="black" d="M177.82,-73.31C176.85,-65.64 175.68,-56.39 174.58,-47.74"/>
<polygon fill="black" stroke="black" points="178.08,-47.51 173.35,-38.03 171.13,-48.39 178.08,-47.51"/>
</g>
<!-- s33 -->
<g id="node10" class="node">
<title>s33</title>
<polygon fill="none" stroke="black" points="216,-0.5 216,-36.5 270,-36.5 270,-0.5 216,-0.5"/>
<text text-anchor="middle" x="242.75" y="-13.45" font-family="Times,serif" font-size="14.00">15</text>
</g>
<!-- s21&#45;&gt;s33 -->
<g id="edge9" class="edge">
<title>s21&#45;&gt;s33</title>
<path fill="none" stroke="black" d="M195.25,-73.31C202.76,-64.85 211.96,-54.48 220.27,-45.11"/>
<polygon fill="black" stroke="black" points="222.87,-47.46 226.89,-37.66 217.63,-42.82 222.87,-47.46"/>
</g>
<!-- s34 -->
<g id="node11" class="node">
<title>s34</title>
<polygon fill="none" stroke="black" points="288,-0.5 288,-36.5 342,-36.5 342,-0.5 288,-0.5"/>
<text text-anchor="middle" x="314.88" y="-13.45" font-family="Times,serif" font-size="14.00">9</text>
</g>
<!-- s22&#45;&gt;s34 -->
<g id="edge10" class="edge">
<title>s22&#45;&gt;s34</title>
<path fill="none" stroke="black" d="M340.77,-73.31C336.97,-65.38 332.36,-55.76 328.1,-46.86"/>
<polygon fill="black" stroke="black" points="331.28,-45.4 323.81,-37.89 324.97,-48.42 331.28,-45.4"/>
</g>
<!-- s35 -->
<g id="node12" class="node">
<title>s35</title>
<polygon fill="none" stroke="black" points="360,-0.5 360,-36.5 414,-36.5 414,-0.5 360,-0.5"/>
<text text-anchor="middle" x="386.75" y="-13.45" font-family="Times,serif" font-size="14.00">37</text>
</g>
<!-- s22&#45;&gt;s35 -->
<g id="edge11" class="edge">
<title>s22&#45;&gt;s35</title>
<path fill="none" stroke="black" d="M358.2,-73.31C362.49,-65.29 367.71,-55.55 372.51,-46.57"/>
<polygon fill="black" stroke="black" points="375.54,-48.33 377.17,-37.86 369.37,-45.03 375.54,-48.33"/>
</g>
<!-- s36 -->
<g id="node14" class="node">
<title>s36</title>
<polygon fill="none" stroke="black" points="432,-0.5 432,-36.5 486,-36.5 486,-0.5 432,-0.5"/>
<text text-anchor="middle" x="458.75" y="-13.45" font-family="Times,serif" font-size="14.00">10</text>
</g>
<!-- s23&#45;&gt;s36 -->
<g id="edge13" class="edge">
<title>s23&#45;&gt;s36</title>
<path fill="none" stroke="black" d="M459,-73.31C459,-65.73 459,-56.6 459,-48.04"/>
<polygon fill="black" stroke="black" points="462.5,-48.04 459,-38.04 455.5,-48.04 462.5,-48.04"/>
</g>
<!-- s37 -->
<g id="node15" class="node">
<title>s37</title>
<polygon fill="none" stroke="black" points="504,-0.5 504,-36.5 558,-36.5 558,-0.5 504,-0.5"/>
<text text-anchor="middle" x="530.75" y="-13.45" font-family="Times,serif" font-size="14.00">42</text>
</g>
<!-- s23&#45;&gt;s37 -->
<g id="edge14" class="edge">
<title>s23&#45;&gt;s37</title>
<path fill="none" stroke="black" d="M476.43,-73.31C485.12,-64.74 495.8,-54.21 505.4,-44.74"/>
<polygon fill="black" stroke="black" points="507.74,-47.35 512.4,-37.84 502.83,-42.37 507.74,-47.35"/>
</g>
</g>
</svg>
