<?xml version="1.0" encoding="UTF-8" standalone="no"?>
<!DOCTYPE svg PUBLIC "-//W3C//DTD SVG 1.1//EN"
 "http://www.w3.org/Graphics/SVG/1.1/DTD/svg11.dtd">
<!-- Generated by graphviz version 9.0.0 (20230911.1827)
 -->
<!-- Title: G Pages: 1 -->
<svg width="190pt" height="129pt"
 viewBox="0.00 0.00 190.12 128.74" xmlns="http://www.w3.org/2000/svg" xmlns:xlink="http://www.w3.org/1999/xlink">
<g id="graph0" class="graph" transform="scale(1 1) rotate(0) translate(4 124.74)">
<title>G</title>
<polygon fill="white" stroke="none" points="-4,4 -4,-124.74 186.12,-124.74 186.12,4 -4,4"/>
<!-- 1 -->
<g id="node1" class="node">
<title>1</title>
<ellipse fill="none" stroke="black" cx="18" cy="-62" rx="18" ry="18"/>
<text text-anchor="middle" x="18" y="-56.2" font-family="Helvetica,Arial,sans-serif" font-size="14.00">1</text>
</g>
<!-- 2 -->
<g id="node2" class="node">
<title>2</title>
<ellipse fill="none" stroke="black" cx="75.98" cy="-68.9" rx="18" ry="18"/>
<text text-anchor="middle" x="75.98" y="-63.1" font-family="Helvetica,Arial,sans-serif" font-size="14.00">2</text>
</g>
<!-- 1&#45;&gt;2 -->
<g id="edge1" class="edge">
<title>1&#45;&gt;2</title>
<path fill="none" stroke="black" d="M36.34,-64.19C39.69,-64.58 43.25,-65.01 46.81,-65.43"/>
<polygon fill="black" stroke="black" points="46.11,-68.87 56.45,-66.58 46.93,-61.92 46.11,-68.87"/>
</g>
<!-- 3 -->
<g id="node3" class="node">
<title>3</title>
<ellipse fill="none" stroke="black" cx="113.37" cy="-19.46" rx="18" ry="18"/>
<text text-anchor="middle" x="113.37" y="-13.66" font-family="Helvetica,Arial,sans-serif" font-size="14.00">3</text>
</g>
<!-- 2&#45;&gt;3 -->
<g id="edge2" class="edge">
<title>2&#45;&gt;3</title>
<path fill="none" stroke="black" d="M86.99,-54.33C89.63,-50.84 92.52,-47.03 95.38,-43.24"/>
<polygon fill="black" stroke="black" points="98.15,-45.39 101.39,-35.3 92.56,-41.16 98.15,-45.39"/>
</g>
<!-- 4 -->
<g id="node4" class="node">
<title>4</title>
<ellipse fill="none" stroke="black" cx="55.75" cy="-18" rx="18" ry="18"/>
<text text-anchor="middle" x="55.75" y="-12.2" font-family="Helvetica,Arial,sans-serif" font-size="14.00">4</text>
</g>
<!-- 2&#45;&gt;4 -->
<g id="edge3" class="edge">
<title>2&#45;&gt;4</title>
<path fill="none" stroke="black" d="M69.24,-51.95C68.43,-49.91 67.59,-47.79 66.74,-45.65"/>
<polygon fill="black" stroke="black" points="70.03,-44.45 63.08,-36.45 63.52,-47.04 70.03,-44.45"/>
</g>
<!-- 3&#45;&gt;4 -->
<g id="edge4" class="edge">
<title>3&#45;&gt;4</title>
<path fill="none" stroke="black" d="M95.14,-19C91.98,-18.92 88.63,-18.83 85.27,-18.75"/>
<polygon fill="black" stroke="black" points="85.66,-15.26 75.57,-18.5 85.48,-22.26 85.66,-15.26"/>
</g>
<!-- 5 -->
<g id="node5" class="node">
<title>5</title>
<ellipse fill="none" stroke="black" cx="164.12" cy="-54.03" rx="18" ry="18"/>
<text text-anchor="middle" x="164.12" y="-48.23" font-family="Helvetica,Arial,sans-serif" font-size="14.00">5</text>
</g>
<!-- 3&#45;&gt;5 -->
<g id="edge7" class="edge">
<title>3&#45;&gt;5</title>
<path fill="none" stroke="black" d="M128.6,-29.83C132.01,-32.16 135.72,-34.68 139.4,-37.19"/>
<polygon fill="black" stroke="black" points="137.42,-40.08 147.66,-42.81 141.36,-34.29 137.42,-40.08"/>
</g>
<!-- 4&#45;&gt;1 -->
<g id="edge5" class="edge">
<title>4&#45;&gt;1</title>
<path fill="none" stroke="black" d="M43.8,-31.92C41.74,-34.33 39.54,-36.89 37.34,-39.46"/>
<polygon fill="black" stroke="black" points="34.83,-37 30.98,-46.87 40.15,-41.56 34.83,-37"/>
</g>
<!-- 6 -->
<g id="node6" class="node">
<title>6</title>
<ellipse fill="none" stroke="black" cx="126.52" cy="-102.74" rx="18" ry="18"/>
<text text-anchor="middle" x="126.52" y="-96.94" font-family="Helvetica,Arial,sans-serif" font-size="14.00">6</text>
</g>
<!-- 5&#45;&gt;6 -->
<g id="edge6" class="edge">
<title>5&#45;&gt;6</title>
<path fill="none" stroke="black" d="M152.84,-68.64C150.24,-72.01 147.41,-75.68 144.59,-79.33"/>
<polygon fill="black" stroke="black" points="142.06,-76.88 138.72,-86.94 147.6,-81.16 142.06,-76.88"/>
</g>
<!-- 6&#45;&gt;2 -->
<g id="edge8" class="edge">
<title>6&#45;&gt;2</title>
<path fill="none" stroke="black" d="M111.36,-92.59C107.96,-90.31 104.27,-87.84 100.59,-85.38"/>
<polygon fill="black" stroke="black" points="102.65,-82.54 92.39,-79.89 98.75,-88.36 102.65,-82.54"/>
</g>
</g>
</svg>
