<?xml version="1.0" encoding="UTF-8" standalone="no"?>
<!DOCTYPE svg PUBLIC "-//W3C//DTD SVG 1.1//EN"
 "http://www.w3.org/Graphics/SVG/1.1/DTD/svg11.dtd">
<!-- Generated by graphviz version 9.0.0 (20230911.1827)
 -->
<!-- Title: G Pages: 1 -->
<svg width="566pt" height="483pt"
 viewBox="0.00 0.00 566.00 483.00" xmlns="http://www.w3.org/2000/svg" xmlns:xlink="http://www.w3.org/1999/xlink">
<g id="graph0" class="graph" transform="scale(1 1) rotate(0) translate(4 479)">
<title>G</title>
<polygon fill="white" stroke="none" points="-4,4 -4,-479 562,-479 562,4 -4,4"/>
<!-- s00 -->
<g id="node1" class="node">
<title>s00</title>
<polygon fill="none" stroke="black" points="138.75,-438.5 138.75,-474.5 361.25,-474.5 361.25,-438.5 138.75,-438.5"/>
<text text-anchor="middle" x="153.5" y="-451.45" font-family="Times,serif" font-size="14.00">18</text>
<polyline fill="none" stroke="black" points="168.25,-438.5 168.25,-474.5"/>
<text text-anchor="middle" x="183" y="-451.45" font-family="Times,serif" font-size="14.00">43</text>
<polyline fill="none" stroke="black" points="197.75,-438.5 197.75,-474.5"/>
<text text-anchor="middle" x="209.12" y="-451.45" font-family="Times,serif" font-size="14.00">6</text>
<polyline fill="none" stroke="black" points="220.5,-438.5 220.5,-474.5"/>
<text text-anchor="middle" x="235.25" y="-451.45" font-family="Times,serif" font-size="14.00">15</text>
<polyline fill="none" stroke="black" points="250,-438.5 250,-474.5"/>
<text text-anchor="middle" x="261.38" y="-451.45" font-family="Times,serif" font-size="14.00">9</text>
<polyline fill="none" stroke="black" points="272.75,-438.5 272.75,-474.5"/>
<text text-anchor="middle" x="287.5" y="-451.45" font-family="Times,serif" font-size="14.00">37</text>
<polyline fill="none" stroke="black" points="302.25,-438.5 302.25,-474.5"/>
<text text-anchor="middle" x="317" y="-451.45" font-family="Times,serif" font-size="14.00">10</text>
<polyline fill="none" stroke="black" points="331.75,-438.5 331.75,-474.5"/>
<text text-anchor="middle" x="346.5" y="-451.45" font-family="Times,serif" font-size="14.00">42</text>
</g>
<!-- s10 -->
<g id="node2" class="node">
<title>s10</title>
<polygon fill="none" stroke="black" points="124.38,-365.5 124.38,-401.5 235.62,-401.5 235.62,-365.5 124.38,-365.5"/>
<text text-anchor="middle" x="139.12" y="-378.45" font-family="Times,serif" font-size="14.00">18</text>
<polyline fill="none" stroke="black" points="153.88,-365.5 153.88,-401.5"/>
<text text-anchor="middle" x="168.62" y="-378.45" font-family="Times,serif" font-size="14.00">43</text>
<polyline fill="none" stroke="black" points="183.38,-365.5 183.38,-401.5"/>
<text text-anchor="middle" x="194.75" y="-378.45" font-family="Times,serif" font-size="14.00">6</text>
<polyline fill="none" stroke="black" points="206.12,-365.5 206.12,-401.5"/>
<text text-anchor="middle" x="220.88" y="-378.45" font-family="Times,serif" font-size="14.00">15</text>
</g>
<!-- s00&#45;&gt;s10 -->
<g id="edge1" class="edge">
<title>s00&#45;&gt;s10</title>
<path fill="none" stroke="black" d="M233.05,-438.31C224.54,-429.68 214.07,-419.06 204.68,-409.53"/>
<polygon fill="black" stroke="black" points="207.36,-407.27 197.85,-402.61 202.38,-412.18 207.36,-407.27"/>
</g>
<!-- s11 -->
<g id="node3" class="node">
<title>s11</title>
<polygon fill="none" stroke="black" points="293.38,-365.5 293.38,-401.5 404.62,-401.5 404.62,-365.5 293.38,-365.5"/>
<text text-anchor="middle" x="304.75" y="-378.45" font-family="Times,serif" font-size="14.00">9</text>
<polyline fill="none" stroke="black" points="316.12,-365.5 316.12,-401.5"/>
<text text-anchor="middle" x="330.88" y="-378.45" font-family="Times,serif" font-size="14.00">37</text>
<polyline fill="none" stroke="black" points="345.62,-365.5 345.62,-401.5"/>
<text text-anchor="middle" x="360.38" y="-378.45" font-family="Times,serif" font-size="14.00">10</text>
<polyline fill="none" stroke="black" points="375.12,-365.5 375.12,-401.5"/>
<text text-anchor="middle" x="389.88" y="-378.45" font-family="Times,serif" font-size="14.00">42</text>
</g>
<!-- s00&#45;&gt;s11 -->
<g id="edge2" class="edge">
<title>s00&#45;&gt;s11</title>
<path fill="none" stroke="black" d="M274.22,-438.13C286.68,-429.19 302.07,-418.16 315.64,-408.42"/>
<polygon fill="black" stroke="black" points="317.37,-411.49 323.46,-402.82 313.29,-405.8 317.37,-411.49"/>
</g>
<!-- s20 -->
<g id="node4" class="node">
<title>s20</title>
<polygon fill="none" stroke="black" points="69.5,-292.5 69.5,-328.5 128.5,-328.5 128.5,-292.5 69.5,-292.5"/>
<text text-anchor="middle" x="84.25" y="-305.45" font-family="Times,serif" font-size="14.00">18</text>
<polyline fill="none" stroke="black" points="99,-292.5 99,-328.5"/>
<text text-anchor="middle" x="113.75" y="-305.45" font-family="Times,serif" font-size="14.00">43</text>
</g>
<!-- s10&#45;&gt;s20 -->
<g id="edge3" class="edge">
<title>s10&#45;&gt;s20</title>
<path fill="none" stroke="black" d="M160.39,-365.31C150.42,-356.57 138.11,-345.78 127.15,-336.17"/>
<polygon fill="black" stroke="black" points="129.67,-333.73 119.85,-329.77 125.06,-339 129.67,-333.73"/>
</g>
<!-- s21 -->
<g id="node5" class="node">
<title>s21</title>
<polygon fill="none" stroke="black" points="153,-292.5 153,-328.5 207,-328.5 207,-292.5 153,-292.5"/>
<text text-anchor="middle" x="164.38" y="-305.45" font-family="Times,serif" font-size="14.00">6</text>
<polyline fill="none" stroke="black" points="175.75,-292.5 175.75,-328.5"/>
<text text-anchor="middle" x="191" y="-305.45" font-family="Times,serif" font-size="14.00">15</text>
</g>
<!-- s10&#45;&gt;s21 -->
<g id="edge4" class="edge">
<title>s10&#45;&gt;s21</title>
<path fill="none" stroke="black" d="M180,-365.31C180,-357.73 180,-348.6 180,-340.04"/>
<polygon fill="black" stroke="black" points="183.5,-340.04 180,-330.04 176.5,-340.04 183.5,-340.04"/>
</g>
<!-- s22 -->
<g id="node6" class="node">
<title>s22</title>
<polygon fill="none" stroke="black" points="322,-292.5 322,-328.5 376,-328.5 376,-292.5 322,-292.5"/>
<text text-anchor="middle" x="333.38" y="-305.45" font-family="Times,serif" font-size="14.00">9</text>
<polyline fill="none" stroke="black" points="344.75,-292.5 344.75,-328.5"/>
<text text-anchor="middle" x="360" y="-305.45" font-family="Times,serif" font-size="14.00">37</text>
</g>
<!-- s11&#45;&gt;s22 -->
<g id="edge5" class="edge">
<title>s11&#45;&gt;s22</title>
<path fill="none" stroke="black" d="M349,-365.31C349,-357.73 349,-348.6 349,-340.04"/>
<polygon fill="black" stroke="black" points="352.5,-340.04 349,-330.04 345.5,-340.04 352.5,-340.04"/>
</g>
<!-- s23 -->
<g id="node13" class="node">
<title>s23</title>
<polygon fill="none" stroke="black" points="429.5,-292.5 429.5,-328.5 488.5,-328.5 488.5,-292.5 429.5,-292.5"/>
<text text-anchor="middle" x="444.25" y="-305.45" font-family="Times,serif" font-size="14.00">10</text>
<polyline fill="none" stroke="black" points="459,-292.5 459,-328.5"/>
<text text-anchor="middle" x="473.75" y="-305.45" font-family="Times,serif" font-size="14.00">42</text>
</g>
<!-- s11&#45;&gt;s23 -->
<g id="edge12" class="edge">
<title>s11&#45;&gt;s23</title>
<path fill="none" stroke="black" d="M375.91,-365.13C389.89,-356.11 407.19,-344.94 422.37,-335.14"/>
<polygon fill="black" stroke="black" points="424.21,-338.12 430.72,-329.76 420.42,-332.24 424.21,-338.12"/>
</g>
<!-- s30 -->
<g id="node7" class="node">
<title>s30</title>
<polygon fill="none" stroke="black" points="0,-219.5 0,-255.5 54,-255.5 54,-219.5 0,-219.5"/>
<text text-anchor="middle" x="26.75" y="-232.45" font-family="Times,serif" font-size="14.00">18</text>
</g>
<!-- s20&#45;&gt;s30 -->
<g id="edge6" class="edge">
<title>s20&#45;&gt;s30</title>
<path fill="none" stroke="black" d="M81.57,-292.31C72.88,-283.74 62.2,-273.21 52.6,-263.74"/>
<polygon fill="black" stroke="black" points="55.17,-261.37 45.6,-256.84 50.26,-266.35 55.17,-261.37"/>
</g>
<!-- s31 -->
<g id="node8" class="node">
<title>s31</title>
<polygon fill="none" stroke="black" points="72,-219.5 72,-255.5 126,-255.5 126,-219.5 72,-219.5"/>
<text text-anchor="middle" x="98.75" y="-232.45" font-family="Times,serif" font-size="14.00">43</text>
</g>
<!-- s20&#45;&gt;s31 -->
<g id="edge7" class="edge">
<title>s20&#45;&gt;s31</title>
<path fill="none" stroke="black" d="M99,-292.31C99,-284.73 99,-275.6 99,-267.04"/>
<polygon fill="black" stroke="black" points="102.5,-267.04 99,-257.04 95.5,-267.04 102.5,-267.04"/>
</g>
<!-- s32 -->
<g id="node9" class="node">
<title>s32</title>
<polygon fill="none" stroke="black" points="144,-219.5 144,-255.5 198,-255.5 198,-219.5 144,-219.5"/>
<text text-anchor="middle" x="170.88" y="-232.45" font-family="Times,serif" font-size="14.00">6</text>
</g>
<!-- s21&#45;&gt;s32 -->
<g id="edge8" class="edge">
<title>s21&#45;&gt;s32</title>
<path fill="none" stroke="black" d="M177.82,-292.31C176.85,-284.64 175.68,-275.39 174.58,-266.74"/>
<polygon fill="black" stroke="black" points="178.08,-266.51 173.35,-257.03 171.13,-267.39 178.08,-266.51"/>
</g>
<!-- s33 -->
<g id="node10" class="node">
<title>s33</title>
<polygon fill="none" stroke="black" points="216,-219.5 216,-255.5 270,-255.5 270,-219.5 216,-219.5"/>
<text text-anchor="middle" x="242.75" y="-232.45" font-family="Times,serif" font-size="14.00">15</text>
</g>
<!-- s21&#45;&gt;s33 -->
<g id="edge9" class="edge">
<title>s21&#45;&gt;s33</title>
<path fill="none" stroke="black" d="M195.25,-292.31C202.76,-283.85 211.96,-273.48 220.27,-264.11"/>
<polygon fill="black" stroke="black" points="222.87,-266.46 226.89,-256.66 217.63,-261.82 222.87,-266.46"/>
</g>
<!-- s34 -->
<g id="node11" class="node">
<title>s34</title>
<polygon fill="none" stroke="black" points="288,-219.5 288,-255.5 342,-255.5 342,-219.5 288,-219.5"/>
<text text-anchor="middle" x="314.88" y="-232.45" font-family="Times,serif" font-size="14.00">9</text>
</g>
<!-- s22&#45;&gt;s34 -->
<g id="edge10" class="edge">
<title>s22&#45;&gt;s34</title>
<path fill="none" stroke="black" d="M340.77,-292.31C336.97,-284.38 332.36,-274.76 328.1,-265.86"/>
<polygon fill="black" stroke="black" points="331.28,-264.4 323.81,-256.89 324.97,-267.42 331.28,-264.4"/>
</g>
<!-- s35 -->
<g id="node12" class="node">
<title>s35</title>
<polygon fill="none" stroke="black" points="360,-219.5 360,-255.5 414,-255.5 414,-219.5 360,-219.5"/>
<text text-anchor="middle" x="386.75" y="-232.45" font-family="Times,serif" font-size="14.00">37</text>
</g>
<!-- s22&#45;&gt;s35 -->
<g id="edge11" class="edge">
<title>s22&#45;&gt;s35</title>
<path fill="none" stroke="black" d="M358.2,-292.31C362.49,-284.29 367.71,-274.55 372.51,-265.57"/>
<polygon fill="black" stroke="black" points="375.54,-267.33 377.17,-256.86 369.37,-264.03 375.54,-267.33"/>
</g>
<!-- s40 -->
<g id="node16" class="node">
<title>s40</title>
<polygon fill="none" stroke="black" points="69.5,-146.5 69.5,-182.5 128.5,-182.5 128.5,-146.5 69.5,-146.5"/>
<text text-anchor="middle" x="84.25" y="-159.45" font-family="Times,serif" font-size="14.00">18</text>
<polyline fill="none" stroke="black" points="99,-146.5 99,-182.5"/>
<text text-anchor="middle" x="113.75" y="-159.45" font-family="Times,serif" font-size="14.00">43</text>
</g>
<!-- s30&#45;&gt;s40 -->
<g id="edge15" class="edge">
<title>s30&#45;&gt;s40</title>
<path fill="none" stroke="black" d="M44.43,-219.31C53.12,-210.74 63.8,-200.21 73.4,-190.74"/>
<polygon fill="black" stroke="black" points="75.74,-193.35 80.4,-183.84 70.83,-188.37 75.74,-193.35"/>
</g>
<!-- s31&#45;&gt;s40 -->
<g id="edge16" class="edge">
<title>s31&#45;&gt;s40</title>
<path fill="none" stroke="black" d="M99,-219.31C99,-211.73 99,-202.6 99,-194.04"/>
<polygon fill="black" stroke="black" points="102.5,-194.04 99,-184.04 95.5,-194.04 102.5,-194.04"/>
</g>
<!-- s41 -->
<g id="node17" class="node">
<title>s41</title>
<polygon fill="none" stroke="black" points="153,-146.5 153,-182.5 207,-182.5 207,-146.5 153,-146.5"/>
<text text-anchor="middle" x="164.38" y="-159.45" font-family="Times,serif" font-size="14.00">6</text>
<polyline fill="none" stroke="black" points="175.75,-146.5 175.75,-182.5"/>
<text text-anchor="middle" x="191" y="-159.45" font-family="Times,serif" font-size="14.00">15</text>
</g>
<!-- s32&#45;&gt;s41 -->
<g id="edge17" class="edge">
<title>s32&#45;&gt;s41</title>
<path fill="none" stroke="black" d="M173.18,-219.31C174.15,-211.64 175.32,-202.39 176.42,-193.74"/>
<polygon fill="black" stroke="black" points="179.87,-194.39 177.65,-184.03 172.92,-193.51 179.87,-194.39"/>
</g>
<!-- s33&#45;&gt;s41 -->
<g id="edge18" class="edge">
<title>s33&#45;&gt;s41</title>
<path fill="none" stroke="black" d="M227.75,-219.31C220.24,-210.85 211.04,-200.48 202.73,-191.11"/>
<polygon fill="black" stroke="black" points="205.37,-188.82 196.11,-183.66 200.13,-193.46 205.37,-188.82"/>
</g>
<!-- s42 -->
<g id="node18" class="node">
<title>s42</title>
<polygon fill="none" stroke="black" points="322,-146.5 322,-182.5 376,-182.5 376,-146.5 322,-146.5"/>
<text text-anchor="middle" x="333.38" y="-159.45" font-family="Times,serif" font-size="14.00">9</text>
<polyline fill="none" stroke="black" points="344.75,-146.5 344.75,-182.5"/>
<text text-anchor="middle" x="360" y="-159.45" font-family="Times,serif" font-size="14.00">37</text>
</g>
<!-- s34&#45;&gt;s42 -->
<g id="edge19" class="edge">
<title>s34&#45;&gt;s42</title>
<path fill="none" stroke="black" d="M323.23,-219.31C327.03,-211.38 331.64,-201.76 335.9,-192.86"/>
<polygon fill="black" stroke="black" points="339.03,-194.42 340.19,-183.89 332.72,-191.4 339.03,-194.42"/>
</g>
<!-- s35&#45;&gt;s42 -->
<g id="edge20" class="edge">
<title>s35&#45;&gt;s42</title>
<path fill="none" stroke="black" d="M377.8,-219.31C373.51,-211.29 368.29,-201.55 363.49,-192.57"/>
<polygon fill="black" stroke="black" points="366.63,-191.03 358.83,-183.86 360.46,-194.33 366.63,-191.03"/>
</g>
<!-- s36 -->
<g id="node14" class="node">
<title>s36</title>
<polygon fill="none" stroke="black" points="432,-219.5 432,-255.5 486,-255.5 486,-219.5 432,-219.5"/>
<text text-anchor="middle" x="458.75" y="-232.45" font-family="Times,serif" font-size="14.00">10</text>
</g>
<!-- s23&#45;&gt;s36 -->
<g id="edge13" class="edge">
<title>s23&#45;&gt;s36</title>
<path fill="none" stroke="black" d="M459,-292.31C459,-284.73 459,-275.6 459,-267.04"/>
<polygon fill="black" stroke="black" points="462.5,-267.04 459,-257.04 455.5,-267.04 462.5,-267.04"/>
</g>
<!-- s37 -->
<g id="node15" class="node">
<title>s37</title>
<polygon fill="none" stroke="black" points="504,-219.5 504,-255.5 558,-255.5 558,-219.5 504,-219.5"/>
<text text-anchor="middle" x="530.75" y="-232.45" font-family="Times,serif" font-size="14.00">42</text>
</g>
<!-- s23&#45;&gt;s37 -->
<g id="edge14" class="edge">
<title>s23&#45;&gt;s37</title>
<path fill="none" stroke="black" d="M476.43,-292.31C485.12,-283.74 495.8,-273.21 505.4,-263.74"/>
<polygon fill="black" stroke="black" points="507.74,-266.35 512.4,-256.84 502.83,-261.37 507.74,-266.35"/>
</g>
<!-- s43 -->
<g id="node19" class="node">
<title>s43</title>
<polygon fill="none" stroke="black" points="429.5,-146.5 429.5,-182.5 488.5,-182.5 488.5,-146.5 429.5,-146.5"/>
<text text-anchor="middle" x="444.25" y="-159.45" font-family="Times,serif" font-size="14.00">10</text>
<polyline fill="none" stroke="black" points="459,-146.5 459,-182.5"/>
<text text-anchor="middle" x="473.75" y="-159.45" font-family="Times,serif" font-size="14.00">42</text>
</g>
<!-- s36&#45;&gt;s43 -->
<g id="edge21" class="edge">
<title>s36&#45;&gt;s43</title>
<path fill="none" stroke="black" d="M459,-219.31C459,-211.73 459,-202.6 459,-194.04"/>
<polygon fill="black" stroke="black" points="462.5,-194.04 459,-184.04 455.5,-194.04 462.5,-194.04"/>
</g>
<!-- s37&#45;&gt;s43 -->
<g id="edge22" class="edge">
<title>s37&#45;&gt;s43</title>
<path fill="none" stroke="black" d="M513.57,-219.31C504.88,-210.74 494.2,-200.21 484.6,-190.74"/>
<polygon fill="black" stroke="black" points="487.17,-188.37 477.6,-183.84 482.26,-193.35 487.17,-188.37"/>
</g>
<!-- s50 -->
<g id="node20" class="node">
<title>s50</title>
<polygon fill="none" stroke="black" points="124.38,-73.5 124.38,-109.5 235.62,-109.5 235.62,-73.5 124.38,-73.5"/>
<text text-anchor="middle" x="135.75" y="-86.45" font-family="Times,serif" font-size="14.00">6</text>
<polyline fill="none" stroke="black" points="147.12,-73.5 147.12,-109.5"/>
<text text-anchor="middle" x="161.88" y="-86.45" font-family="Times,serif" font-size="14.00">15</text>
<polyline fill="none" stroke="black" points="176.62,-73.5 176.62,-109.5"/>
<text text-anchor="middle" x="191.38" y="-86.45" font-family="Times,serif" font-size="14.00">18</text>
<polyline fill="none" stroke="black" points="206.12,-73.5 206.12,-109.5"/>
<text text-anchor="middle" x="220.88" y="-86.45" font-family="Times,serif" font-size="14.00">43</text>
</g>
<!-- s40&#45;&gt;s50 -->
<g id="edge23" class="edge">
<title>s40&#45;&gt;s50</title>
<path fill="none" stroke="black" d="M118.61,-146.31C128.58,-137.57 140.89,-126.78 151.85,-117.17"/>
<polygon fill="black" stroke="black" points="153.94,-120 159.15,-110.77 149.33,-114.73 153.94,-120"/>
</g>
<!-- s41&#45;&gt;s50 -->
<g id="edge24" class="edge">
<title>s41&#45;&gt;s50</title>
<path fill="none" stroke="black" d="M180,-146.31C180,-138.73 180,-129.6 180,-121.04"/>
<polygon fill="black" stroke="black" points="183.5,-121.04 180,-111.04 176.5,-121.04 183.5,-121.04"/>
</g>
<!-- s51 -->
<g id="node21" class="node">
<title>s51</title>
<polygon fill="none" stroke="black" points="293.38,-73.5 293.38,-109.5 404.62,-109.5 404.62,-73.5 293.38,-73.5"/>
<text text-anchor="middle" x="304.75" y="-86.45" font-family="Times,serif" font-size="14.00">9</text>
<polyline fill="none" stroke="black" points="316.12,-73.5 316.12,-109.5"/>
<text text-anchor="middle" x="330.88" y="-86.45" font-family="Times,serif" font-size="14.00">10</text>
<polyline fill="none" stroke="black" points="345.62,-73.5 345.62,-109.5"/>
<text text-anchor="middle" x="360.38" y="-86.45" font-family="Times,serif" font-size="14.00">37</text>
<polyline fill="none" stroke="black" points="375.12,-73.5 375.12,-109.5"/>
<text text-anchor="middle" x="389.88" y="-86.45" font-family="Times,serif" font-size="14.00">42</text>
</g>
<!-- s42&#45;&gt;s51 -->
<g id="edge25" class="edge">
<title>s42&#45;&gt;s51</title>
<path fill="none" stroke="black" d="M349,-146.31C349,-138.73 349,-129.6 349,-121.04"/>
<polygon fill="black" stroke="black" points="352.5,-121.04 349,-111.04 345.5,-121.04 352.5,-121.04"/>
</g>
<!-- s43&#45;&gt;s51 -->
<g id="edge26" class="edge">
<title>s43&#45;&gt;s51</title>
<path fill="none" stroke="black" d="M432.09,-146.13C418.11,-137.11 400.81,-125.94 385.63,-116.14"/>
<polygon fill="black" stroke="black" points="387.58,-113.24 377.28,-110.76 383.79,-119.12 387.58,-113.24"/>
</g>
<!-- s60 -->
<g id="node22" class="node">
<title>s60</title>
<polygon fill="none" stroke="black" points="138.75,-0.5 138.75,-36.5 361.25,-36.5 361.25,-0.5 138.75,-0.5"/>
<text text-anchor="middle" x="150.12" y="-13.45" font-family="Times,serif" font-size="14.00">6</text>
<polyline fill="none" stroke="black" points="161.5,-0.5 161.5,-36.5"/>
<text text-anchor="middle" x="172.88" y="-13.45" font-family="Times,serif" font-size="14.00">9</text>
<polyline fill="none" stroke="black" points="184.25,-0.5 184.25,-36.5"/>
<text text-anchor="middle" x="199" y="-13.45" font-family="Times,serif" font-size="14.00">10</text>
<polyline fill="none" stroke="black" points="213.75,-0.5 213.75,-36.5"/>
<text text-anchor="middle" x="228.5" y="-13.45" font-family="Times,serif" font-size="14.00">15</text>
<polyline fill="none" stroke="black" points="243.25,-0.5 243.25,-36.5"/>
<text text-anchor="middle" x="258" y="-13.45" font-family="Times,serif" font-size="14.00">18</text>
<polyline fill="none" stroke="black" points="272.75,-0.5 272.75,-36.5"/>
<text text-anchor="middle" x="287.5" y="-13.45" font-family="Times,serif" font-size="14.00">37</text>
<polyline fill="none" stroke="black" points="302.25,-0.5 302.25,-36.5"/>
<text text-anchor="middle" x="317" y="-13.45" font-family="Times,serif" font-size="14.00">42</text>
<polyline fill="none" stroke="black" points="331.75,-0.5 331.75,-36.5"/>
<text text-anchor="middle" x="346.5" y="-13.45" font-family="Times,serif" font-size="14.00">43</text>
</g>
<!-- s50&#45;&gt;s60 -->
<g id="edge27" class="edge">
<title>s50&#45;&gt;s60</title>
<path fill="none" stroke="black" d="M196.95,-73.31C205.46,-64.68 215.93,-54.06 225.32,-44.53"/>
<polygon fill="black" stroke="black" points="227.62,-47.18 232.15,-37.61 222.64,-42.27 227.62,-47.18"/>
</g>
<!-- s51&#45;&gt;s60 -->
<g id="edge28" class="edge">
<title>s51&#45;&gt;s60</title>
<path fill="none" stroke="black" d="M324.78,-73.13C312.32,-64.19 296.93,-53.16 283.36,-43.42"/>
<polygon fill="black" stroke="black" points="285.71,-40.8 275.54,-37.82 281.63,-46.49 285.71,-40.8"/>
</g>
</g>
</svg>
