<?xml version="1.0" encoding="UTF-8" standalone="no"?>
<!DOCTYPE svg PUBLIC "-//W3C//DTD SVG 1.1//EN"
 "http://www.w3.org/Graphics/SVG/1.1/DTD/svg11.dtd">
<!-- Generated by graphviz version 9.0.0 (20230911.1827)
 -->
<!-- Title: G Pages: 1 -->
<svg width="191pt" height="148pt"
 viewBox="0.00 0.00 190.92 147.56" xmlns="http://www.w3.org/2000/svg" xmlns:xlink="http://www.w3.org/1999/xlink">
<g id="graph0" class="graph" transform="scale(1 1) rotate(0) translate(4 143.56)">
<title>G</title>
<polygon fill="white" stroke="none" points="-4,4 -4,-143.56 186.92,-143.56 186.92,4 -4,4"/>
<!-- 1 -->
<g id="node1" class="node">
<title>1</title>
<ellipse fill="none" stroke="black" cx="52.32" cy="-62.13" rx="18" ry="18"/>
<text text-anchor="middle" x="52.32" y="-56.33" font-family="Helvetica,Arial,sans-serif" font-size="14.00">1</text>
</g>
<!-- 2 -->
<g id="node2" class="node">
<title>2</title>
<ellipse fill="none" stroke="black" cx="110.55" cy="-63.66" rx="18" ry="18"/>
<text text-anchor="middle" x="110.55" y="-57.86" font-family="Helvetica,Arial,sans-serif" font-size="14.00">2</text>
</g>
<!-- 1&#45;&#45;2 -->
<g id="edge1" class="edge">
<title>1&#45;&#45;2</title>
<path fill="none" stroke="black" d="M70.75,-62.61C77.68,-62.8 85.55,-63 92.45,-63.19"/>
</g>
<!-- 3 -->
<g id="node3" class="node">
<title>3</title>
<ellipse fill="none" stroke="black" cx="74.06" cy="-18.12" rx="18" ry="18"/>
<text text-anchor="middle" x="74.06" y="-12.32" font-family="Helvetica,Arial,sans-serif" font-size="14.00">3</text>
</g>
<!-- 1&#45;&#45;3 -->
<g id="edge2" class="edge">
<title>1&#45;&#45;3</title>
<path fill="none" stroke="black" d="M60.42,-45.74C62.2,-42.13 64.1,-38.29 65.89,-34.67"/>
</g>
<!-- 4 -->
<g id="node4" class="node">
<title>4</title>
<ellipse fill="none" stroke="black" cx="18" cy="-18" rx="18" ry="18"/>
<text text-anchor="middle" x="18" y="-12.2" font-family="Helvetica,Arial,sans-serif" font-size="14.00">4</text>
</g>
<!-- 1&#45;&#45;4 -->
<g id="edge3" class="edge">
<title>1&#45;&#45;4</title>
<path fill="none" stroke="black" d="M41.08,-47.68C37.25,-42.75 32.97,-37.25 29.15,-32.33"/>
</g>
<!-- 2&#45;&#45;3 -->
<g id="edge4" class="edge">
<title>2&#45;&#45;3</title>
<path fill="none" stroke="black" d="M99.01,-49.25C94.66,-43.83 89.73,-37.68 85.41,-32.28"/>
</g>
<!-- 5 -->
<g id="node5" class="node">
<title>5</title>
<ellipse fill="none" stroke="black" cx="164.92" cy="-40.01" rx="18" ry="18"/>
<text text-anchor="middle" x="164.92" y="-34.21" font-family="Helvetica,Arial,sans-serif" font-size="14.00">5</text>
</g>
<!-- 2&#45;&#45;5 -->
<g id="edge5" class="edge">
<title>2&#45;&#45;5</title>
<path fill="none" stroke="black" d="M128.74,-62.49C136.19,-60.07 144.64,-56.4 151.51,-52.6"/>
</g>
<!-- 2&#45;&#45;5 -->
<g id="edge6" class="edge">
<title>2&#45;&#45;5</title>
<path fill="none" stroke="black" d="M123.81,-51.15C130.66,-47.35 139.1,-43.67 146.56,-41.23"/>
</g>
<!-- 6 -->
<g id="node6" class="node">
<title>6</title>
<ellipse fill="none" stroke="black" cx="123.72" cy="-121.56" rx="18" ry="18"/>
<text text-anchor="middle" x="123.72" y="-115.76" font-family="Helvetica,Arial,sans-serif" font-size="14.00">6</text>
</g>
<!-- 2&#45;&#45;6 -->
<g id="edge7" class="edge">
<title>2&#45;&#45;6</title>
<path fill="none" stroke="black" d="M114.65,-81.66C116.25,-88.7 118.08,-96.75 119.67,-103.76"/>
</g>
<!-- 3&#45;&#45;4 -->
<g id="edge8" class="edge">
<title>3&#45;&#45;4</title>
<path fill="none" stroke="black" d="M55.7,-18.08C49.45,-18.07 42.45,-18.05 36.21,-18.04"/>
</g>
</g>
</svg>
