<?xml version="1.0" encoding="UTF-8" standalone="no"?>
<!DOCTYPE svg PUBLIC "-//W3C//DTD SVG 1.1//EN"
 "http://www.w3.org/Graphics/SVG/1.1/DTD/svg11.dtd">
<!-- Generated by graphviz version 9.0.0 (20230911.1827)
 -->
<!-- Title: G Pages: 1 -->
<svg width="184pt" height="148pt"
 viewBox="0.00 0.00 184.00 148.00" xmlns="http://www.w3.org/2000/svg" xmlns:xlink="http://www.w3.org/1999/xlink">
<g id="graph0" class="graph" transform="scale(1 1) rotate(0) translate(4 144)">
<title>G</title>
<polygon fill="white" stroke="none" points="-4,4 -4,-144 180,-144 180,4 -4,4"/>
<g id="clust1" class="cluster">
<title>cluster_0</title>
<polygon fill="none" stroke="orange" points="8,-80 8,-132 168,-132 168,-80 8,-80"/>
</g>
<g id="clust2" class="cluster">
<title>cluster_1</title>
<polygon fill="none" stroke="blue" points="8,-8 8,-60 168,-60 168,-8 8,-8"/>
</g>
<!-- 1 -->
<g id="node1" class="node">
<title>1</title>
<ellipse fill="none" stroke="black" cx="142" cy="-106" rx="18" ry="18"/>
<text text-anchor="middle" x="142" y="-100.2" font-family="Helvetica,Arial,sans-serif" font-size="14.00">1</text>
</g>
<!-- 4 -->
<g id="node5" class="node">
<title>4</title>
<ellipse fill="none" stroke="black" cx="142" cy="-34" rx="18" ry="18"/>
<text text-anchor="middle" x="142" y="-28.2" font-family="Helvetica,Arial,sans-serif" font-size="14.00">4</text>
</g>
<!-- 1&#45;&#45;4 -->
<g id="edge3" class="edge">
<title>1&#45;&#45;4</title>
<path fill="none" stroke="black" d="M142,-87.7C142,-76.85 142,-62.92 142,-52.1"/>
</g>
<!-- 2 -->
<g id="node2" class="node">
<title>2</title>
<ellipse fill="none" stroke="black" cx="88" cy="-106" rx="18" ry="18"/>
<text text-anchor="middle" x="88" y="-100.2" font-family="Helvetica,Arial,sans-serif" font-size="14.00">2</text>
</g>
<!-- 3 -->
<g id="node4" class="node">
<title>3</title>
<ellipse fill="none" stroke="black" cx="88" cy="-34" rx="18" ry="18"/>
<text text-anchor="middle" x="88" y="-28.2" font-family="Helvetica,Arial,sans-serif" font-size="14.00">3</text>
</g>
<!-- 2&#45;&#45;3 -->
<g id="edge1" class="edge">
<title>2&#45;&#45;3</title>
<path fill="none" stroke="black" d="M88,-87.7C88,-76.85 88,-62.92 88,-52.1"/>
</g>
<!-- 2&#45;&#45;4 -->
<g id="edge2" class="edge">
<title>2&#45;&#45;4</title>
<path fill="none" stroke="black" d="M98.67,-91.17C108.14,-78.9 121.89,-61.06 131.35,-48.8"/>
</g>
<!-- 5 -->
<g id="node3" class="node">
<title>5</title>
<ellipse fill="none" stroke="black" cx="34" cy="-106" rx="18" ry="18"/>
<text text-anchor="middle" x="34" y="-100.2" font-family="Helvetica,Arial,sans-serif" font-size="14.00">5</text>
</g>
<!-- 6 -->
<g id="node6" class="node">
<title>6</title>
<ellipse fill="none" stroke="black" cx="34" cy="-34" rx="18" ry="18"/>
<text text-anchor="middle" x="34" y="-28.2" font-family="Helvetica,Arial,sans-serif" font-size="14.00">6</text>
</g>
<!-- 5&#45;&#45;6 -->
<g id="edge4" class="edge">
<title>5&#45;&#45;6</title>
<path fill="none" stroke="black" d="M34,-87.7C34,-76.85 34,-62.92 34,-52.1"/>
</g>
<!-- 3&#45;&#45;5 -->
<g id="edge5" class="edge">
<title>3&#45;&#45;5</title>
<path fill="none" stroke="black" d="M77.35,-48.8C67.89,-61.06 54.14,-78.9 44.67,-91.17"/>
</g>
<!-- 6&#45;&#45;2 -->
<g id="edge6" class="edge">
<title>6&#45;&#45;2</title>
<path fill="none" stroke="black" d="M44.65,-48.8C54.11,-61.06 67.86,-78.9 77.33,-91.17"/>
</g>
</g>
</svg>
