<?xml version="1.0" encoding="UTF-8" standalone="no"?>
<!DOCTYPE svg PUBLIC "-//W3C//DTD SVG 1.1//EN"
 "http://www.w3.org/Graphics/SVG/1.1/DTD/svg11.dtd">
<!-- Generated by graphviz version 9.0.0 (20230911.1827)
 -->
<!-- Title: G Pages: 1 -->
<svg width="138pt" height="137pt"
 viewBox="0.00 0.00 138.50 136.57" xmlns="http://www.w3.org/2000/svg" xmlns:xlink="http://www.w3.org/1999/xlink">
<g id="graph0" class="graph" transform="scale(1 1) rotate(0) translate(4 132.57)">
<title>G</title>
<polygon fill="white" stroke="none" points="-4,4 -4,-132.57 134.5,-132.57 134.5,4 -4,4"/>
<!-- 1 -->
<g id="node1" class="node">
<title>1</title>
<ellipse fill="none" stroke="black" cx="18" cy="-56.62" rx="18" ry="18"/>
<text text-anchor="middle" x="18" y="-50.82" font-family="Helvetica,Arial,sans-serif" font-size="14.00">1</text>
</g>
<!-- 2 -->
<g id="node2" class="node">
<title>2</title>
<ellipse fill="none" stroke="black" cx="112.5" cy="-47.93" rx="18" ry="18"/>
<text text-anchor="middle" x="112.5" y="-42.13" font-family="Helvetica,Arial,sans-serif" font-size="14.00">2</text>
</g>
<!-- 1&#45;&#45;2 -->
<g id="edge1" class="edge">
<title>1&#45;&#45;2</title>
<path fill="none" stroke="black" d="M36.22,-54.94C52.95,-53.4 77.62,-51.14 94.33,-49.6"/>
</g>
<!-- 3 -->
<g id="node3" class="node">
<title>3</title>
<ellipse fill="none" stroke="black" cx="62" cy="-18" rx="18" ry="18"/>
<text text-anchor="middle" x="62" y="-12.2" font-family="Helvetica,Arial,sans-serif" font-size="14.00">3</text>
</g>
<!-- 1&#45;&#45;3 -->
<g id="edge2" class="edge">
<title>1&#45;&#45;3</title>
<path fill="none" stroke="black" d="M31.44,-44.82C36.8,-40.12 42.96,-34.71 48.34,-29.99"/>
</g>
<!-- 4 -->
<g id="node4" class="node">
<title>4</title>
<ellipse fill="none" stroke="black" cx="41.12" cy="-110.57" rx="18" ry="18"/>
<text text-anchor="middle" x="41.12" y="-104.77" font-family="Helvetica,Arial,sans-serif" font-size="14.00">4</text>
</g>
<!-- 1&#45;&#45;4 -->
<g id="edge3" class="edge">
<title>1&#45;&#45;4</title>
<path fill="none" stroke="black" d="M25.19,-73.39C27.94,-79.83 31.09,-87.17 33.85,-93.62"/>
</g>
<!-- 5 -->
<g id="node5" class="node">
<title>5</title>
<ellipse fill="none" stroke="black" cx="99.33" cy="-104.92" rx="18" ry="18"/>
<text text-anchor="middle" x="99.33" y="-99.12" font-family="Helvetica,Arial,sans-serif" font-size="14.00">5</text>
</g>
<!-- 1&#45;&#45;5 -->
<g id="edge4" class="edge">
<title>1&#45;&#45;5</title>
<path fill="none" stroke="black" d="M33.68,-65.93C48.08,-74.48 69.31,-87.09 83.7,-95.63"/>
</g>
<!-- 2&#45;&#45;3 -->
<g id="edge5" class="edge">
<title>2&#45;&#45;3</title>
<path fill="none" stroke="black" d="M96.8,-38.63C90.78,-35.06 83.9,-30.98 77.87,-27.4"/>
</g>
<!-- 2&#45;&#45;4 -->
<g id="edge6" class="edge">
<title>2&#45;&#45;4</title>
<path fill="none" stroke="black" d="M98.73,-60.01C86.09,-71.1 67.46,-87.45 54.84,-98.53"/>
</g>
<!-- 2&#45;&#45;5 -->
<g id="edge7" class="edge">
<title>2&#45;&#45;5</title>
<path fill="none" stroke="black" d="M108.4,-65.65C106.83,-72.45 105.04,-80.2 103.47,-87.01"/>
</g>
<!-- 3&#45;&#45;4 -->
<g id="edge8" class="edge">
<title>3&#45;&#45;4</title>
<path fill="none" stroke="black" d="M57.98,-35.85C54.28,-52.24 48.83,-76.4 45.13,-92.78"/>
</g>
<!-- 3&#45;&#45;5 -->
<g id="edge9" class="edge">
<title>3&#45;&#45;5</title>
<path fill="none" stroke="black" d="M69.2,-34.76C75.81,-50.15 85.55,-72.84 92.16,-88.21"/>
</g>
<!-- 4&#45;&#45;5 -->
<g id="edge10" class="edge">
<title>4&#45;&#45;5</title>
<path fill="none" stroke="black" d="M59.22,-108.81C66.16,-108.14 74.08,-107.37 81.04,-106.69"/>
</g>
</g>
</svg>
