<?xml version="1.0" encoding="UTF-8" standalone="no"?>
<!DOCTYPE svg PUBLIC "-//W3C//DTD SVG 1.1//EN"
 "http://www.w3.org/Graphics/SVG/1.1/DTD/svg11.dtd">
<!-- Generated by graphviz version 9.0.0 (20230911.1827)
 -->
<!-- Title: G Pages: 1 -->
<svg width="231pt" height="45pt"
 viewBox="0.00 0.00 230.50 45.00" xmlns="http://www.w3.org/2000/svg" xmlns:xlink="http://www.w3.org/1999/xlink">
<g id="graph0" class="graph" transform="scale(1 1) rotate(0) translate(4 41)">
<title>G</title>
<polygon fill="white" stroke="none" points="-4,4 -4,-41 226.5,-41 226.5,4 -4,4"/>
<!-- s00 -->
<g id="node1" class="node">
<title>s00</title>
<polygon fill="none" stroke="black" points="0,-0.5 0,-36.5 222.5,-36.5 222.5,-0.5 0,-0.5"/>
<text text-anchor="middle" x="14.75" y="-13.45" font-family="Times,serif" font-size="14.00">18</text>
<polyline fill="none" stroke="black" points="29.5,-0.5 29.5,-36.5"/>
<text text-anchor="middle" x="44.25" y="-13.45" font-family="Times,serif" font-size="14.00">43</text>
<polyline fill="none" stroke="black" points="59,-0.5 59,-36.5"/>
<text text-anchor="middle" x="70.38" y="-13.45" font-family="Times,serif" font-size="14.00">6</text>
<polyline fill="none" stroke="black" points="81.75,-0.5 81.75,-36.5"/>
<text text-anchor="middle" x="96.5" y="-13.45" font-family="Times,serif" font-size="14.00">15</text>
<polyline fill="none" stroke="black" points="111.25,-0.5 111.25,-36.5"/>
<text text-anchor="middle" x="122.62" y="-13.45" font-family="Times,serif" font-size="14.00">9</text>
<polyline fill="none" stroke="black" points="134,-0.5 134,-36.5"/>
<text text-anchor="middle" x="148.75" y="-13.45" font-family="Times,serif" font-size="14.00">37</text>
<polyline fill="none" stroke="black" points="163.5,-0.5 163.5,-36.5"/>
<text text-anchor="middle" x="178.25" y="-13.45" font-family="Times,serif" font-size="14.00">10</text>
<polyline fill="none" stroke="black" points="193,-0.5 193,-36.5"/>
<text text-anchor="middle" x="207.75" y="-13.45" font-family="Times,serif" font-size="14.00">42</text>
</g>
</g>
</svg>
