<?xml version="1.0" encoding="UTF-8" standalone="no"?>
<!DOCTYPE svg PUBLIC "-//W3C//DTD SVG 1.1//EN"
 "http://www.w3.org/Graphics/SVG/1.1/DTD/svg11.dtd">
<!-- Generated by graphviz version 9.0.0 (20230911.1827)
 -->
<!-- Title: G Pages: 1 -->
<svg width="190pt" height="129pt"
 viewBox="0.00 0.00 190.12 128.74" xmlns="http://www.w3.org/2000/svg" xmlns:xlink="http://www.w3.org/1999/xlink">
<g id="graph0" class="graph" transform="scale(1 1) rotate(0) translate(4 124.74)">
<title>G</title>
<polygon fill="white" stroke="none" points="-4,4 -4,-124.74 186.12,-124.74 186.12,4 -4,4"/>
<!-- 1 -->
<g id="node1" class="node">
<title>1</title>
<ellipse fill="none" stroke="black" cx="18" cy="-62" rx="18" ry="18"/>
<text text-anchor="middle" x="18" y="-56.2" font-family="Helvetica,Arial,sans-serif" font-size="14.00">1</text>
</g>
<!-- 2 -->
<g id="node2" class="node">
<title>2</title>
<ellipse fill="none" stroke="black" cx="75.98" cy="-68.9" rx="18" ry="18"/>
<text text-anchor="middle" x="75.98" y="-63.1" font-family="Helvetica,Arial,sans-serif" font-size="14.00">2</text>
</g>
<!-- 1&#45;&#45;2 -->
<g id="edge1" class="edge">
<title>1&#45;&#45;2</title>
<path fill="none" stroke="black" d="M36.34,-64.19C43.25,-65.01 51.08,-65.94 57.95,-66.75"/>
<text text-anchor="middle" x="43.4" y="-67.17" font-family="Helvetica,Arial,sans-serif" font-size="14.00">3</text>
</g>
<!-- 4 -->
<g id="node4" class="node">
<title>4</title>
<ellipse fill="none" stroke="black" cx="55.75" cy="-18" rx="18" ry="18"/>
<text text-anchor="middle" x="55.75" y="-12.2" font-family="Helvetica,Arial,sans-serif" font-size="14.00">4</text>
</g>
<!-- 1&#45;&#45;4 -->
<g id="edge5" class="edge">
<title>1&#45;&#45;4</title>
<path fill="none" stroke="black" d="M29.94,-48.08C34.35,-42.94 39.34,-37.13 43.75,-31.98"/>
<text text-anchor="middle" x="33.1" y="-26.73" font-family="Helvetica,Arial,sans-serif" font-size="14.00">2</text>
</g>
<!-- 3 -->
<g id="node3" class="node">
<title>3</title>
<ellipse fill="none" stroke="black" cx="113.37" cy="-19.46" rx="18" ry="18"/>
<text text-anchor="middle" x="113.37" y="-13.66" font-family="Helvetica,Arial,sans-serif" font-size="14.00">3</text>
</g>
<!-- 2&#45;&#45;3 -->
<g id="edge2" class="edge">
<title>2&#45;&#45;3</title>
<path fill="none" stroke="black" d="M86.99,-54.33C91.82,-47.95 97.47,-40.48 102.3,-34.09"/>
<text text-anchor="middle" x="90.9" y="-30.91" font-family="Helvetica,Arial,sans-serif" font-size="14.00">7</text>
</g>
<!-- 2&#45;&#45;4 -->
<g id="edge3" class="edge">
<title>2&#45;&#45;4</title>
<path fill="none" stroke="black" d="M69.24,-51.95C67.08,-46.51 64.69,-40.49 62.52,-35.05"/>
<text text-anchor="middle" x="62.13" y="-45.2" font-family="Helvetica,Arial,sans-serif" font-size="14.00">4</text>
</g>
<!-- 3&#45;&#45;4 -->
<g id="edge4" class="edge">
<title>3&#45;&#45;4</title>
<path fill="none" stroke="black" d="M95.14,-19C88.41,-18.83 80.79,-18.64 74.06,-18.46"/>
<text text-anchor="middle" x="80.85" y="-20.43" font-family="Helvetica,Arial,sans-serif" font-size="14.00">1</text>
</g>
<!-- 5 -->
<g id="node5" class="node">
<title>5</title>
<ellipse fill="none" stroke="black" cx="164.12" cy="-54.03" rx="18" ry="18"/>
<text text-anchor="middle" x="164.12" y="-48.23" font-family="Helvetica,Arial,sans-serif" font-size="14.00">5</text>
</g>
<!-- 3&#45;&#45;5 -->
<g id="edge7" class="edge">
<title>3&#45;&#45;5</title>
<path fill="none" stroke="black" d="M128.6,-29.83C135.02,-34.21 142.48,-39.29 148.91,-43.66"/>
<text text-anchor="middle" x="135" y="-38.45" font-family="Helvetica,Arial,sans-serif" font-size="14.00">7</text>
</g>
<!-- 6 -->
<g id="node6" class="node">
<title>6</title>
<ellipse fill="none" stroke="black" cx="126.52" cy="-102.74" rx="18" ry="18"/>
<text text-anchor="middle" x="126.52" y="-96.94" font-family="Helvetica,Arial,sans-serif" font-size="14.00">6</text>
</g>
<!-- 5&#45;&#45;6 -->
<g id="edge6" class="edge">
<title>5&#45;&#45;6</title>
<path fill="none" stroke="black" d="M152.84,-68.64C148.08,-74.81 142.55,-81.97 137.79,-88.13"/>
<text text-anchor="middle" x="141.57" y="-65.09" font-family="Helvetica,Arial,sans-serif" font-size="14.00">9</text>
</g>
<!-- 6&#45;&#45;2 -->
<g id="edge8" class="edge">
<title>6&#45;&#45;2</title>
<path fill="none" stroke="black" d="M111.36,-92.59C104.96,-88.3 97.53,-83.33 91.13,-79.04"/>
<text text-anchor="middle" x="97.49" y="-87.51" font-family="Helvetica,Arial,sans-serif" font-size="14.00">6</text>
</g>
</g>
</svg>
